<svg id="레이어_1" data-name="레이어 1" xmlns="http://www.w3.org/2000/svg" viewBox="0 0 512 512"><path d="M256,455.93q-72.06,0-144.11,0C78.08,455.9,56,434,56,400.29q0-144.48,0-289c0-33.13,22.17-55.22,55.42-55.23q144.54,0,289.07,0c33.29,0,55.45,22,55.46,55.19q.06,144.92,0,289.82c0,32.57-22.32,54.78-55,54.82Q328.5,456,256,455.93ZM429.26,271.34c0-55.74.16-109.59-.1-163.44-.07-15.3-11.56-25.12-28.22-25.12Q256,82.72,111,82.78c-18.12,0-28.29,10.26-28.31,28.47q-.07,75,0,149.91c0,2,.38,4,.66,6.84,2.81-2.1,4.81-3.54,6.74-5.05q48.88-38.22,97.76-76.42c14.33-11.14,29.88-9.87,42.53,3.18,5.41,5.58,10.62,11.35,15.93,17L311.6,276.3c12.18-13,23.93-25.49,35.72-38,15.12-16,32.22-16.26,47.77-.8C406,248.4,417,259.24,429.26,271.34Z"/><path d="M313.6,147.29a26.59,26.59,0,0,1,26.85,26.14c.23,14.68-12.32,27.26-27,27.06a26.62,26.62,0,0,1-26.21-26.79A26.09,26.09,0,0,1,313.6,147.29Z"/></svg>