<svg id="레이어_1" data-name="레이어 1" xmlns="http://www.w3.org/2000/svg" viewBox="0 0 512 512"><path d="M272.77,172.75c0-28.09-.06-56.18,0-84.27,0-20.89,11.52-32.33,32.33-32.35q59.33-.06,118.66,0C444,56.15,455.93,67.92,456,88q.06,84.66,0,169.33c0,20.2-11.66,31.81-32.05,31.85q-59.32.12-118.66,0c-21.13,0-32.39-11.2-32.45-32.15C272.71,228.93,272.77,200.84,272.77,172.75Z"/><path d="M239.22,339.53c0,28.09.07,56.18,0,84.27-.07,20.41-11.64,32-31.85,32.06q-59.71.08-119.44,0c-20,0-31.86-11.95-31.87-32.17q0-84.27,0-168.55c0-20.79,11.47-32.29,32.35-32.33q59.33-.1,118.66,0c21,0,32.1,11.3,32.16,32.44C239.28,283.34,239.22,311.44,239.22,339.53Z"/><path d="M148.22,189.26c-20,0-40.07.07-60.1,0-20.41-.09-32-11.64-32.08-31.82Q56,122.71,56,88C56.09,67.92,68,56.15,88.2,56.13q59.71-.06,119.42,0c19.78,0,31.47,11.68,31.57,31.53q.18,35.1,0,70.21c-.1,19.94-11.56,31.26-31.65,31.37C187.77,189.35,168,189.26,148.22,189.26Z"/><path d="M364.49,322.73c20,0,40.07-.1,60.1,0,19.76.12,31.31,11.86,31.36,31.74q.09,35.1,0,70.22c-.08,19-12.18,31.1-31.32,31.13q-60.48.11-121,0c-18.74,0-30.69-11.9-30.83-30.68q-.24-35.9,0-71.78c.13-19,11.74-30.47,30.8-30.62C323.9,322.61,344.2,322.73,364.49,322.73Z"/></svg>