<svg id="레이어_1" data-name="레이어 1" xmlns="http://www.w3.org/2000/svg" viewBox="0 0 512 512"><path d="M456,149.63c0-43.15-30-73.19-73.07-73.21q-126.49,0-253,0c-43.27,0-73.79,30.47-73.82,73.58q-.06,63.62,0,127.22c0,43.7.12,87.41-.08,131.12,0,11.24,3.81,19.92,14.09,24.8s19.57,2.09,28-5.23c34.67-30.11,75.08-44.36,121-44.09,54.66.33,109.32.16,164,.09,42.57-.07,72.86-30.33,72.91-72.72Q456,230.41,456,149.63ZM193.78,257.52c-14.28.25-28.57.07-44.16.07,0,9.25.07,17.51,0,25.78-.1,9.07-4.52,14.53-11.66,14.62s-11.68-5.4-11.69-14.4c0-30.43-.12-60.86,0-91.29.08-17.82,11.78-30,29.52-30.63,12.21-.42,24.46-.25,36.68,0,7.91.15,12.95,5,12.92,11.63s-5.06,11.38-13,11.55c-11.18.25-22.37.21-33.56.06-6.56-.09-9.42,2.63-9.26,9.36.3,12.22.1,24.45.14,36.67a26.19,26.19,0,0,0,.55,3.35h26.08c6,0,12-.27,17.94.15a11.64,11.64,0,0,1,11.14,11.85C205.25,252.48,200.61,257.39,193.78,257.52Zm102,27.11c0,8.07-4.61,13.12-11.22,13.36-6.82.24-11.8-5.11-12-13.4-.21-8.79,0-17.59,0-27H240c0,8.87.09,17.37,0,25.87-.12,9-4.65,14.51-11.76,14.54s-11.55-5.41-11.57-14.5c-.06-27-.16-54.09,0-81.13.16-23.33,17-40.6,39.27-40.72,22-.12,39.23,16.51,39.67,39.52C296.16,229,295.87,256.81,295.73,284.63Zm105.14,13.14c-18.45.4-37,1.16-55.34-.43-19.75-1.71-33.64-18-34.26-38.28q-.9-29.22,0-58.48c.72-22.76,18.46-39.4,40.35-38.93,22.06.47,38.65,17.62,38.8,40.42.15,23.87,0,47.74,0,72.63,4,0,6.85-.18,9.68,0,6.7.51,11.54,5.35,11.27,11.57C411.1,292.91,407.33,297.63,400.87,297.77Z"/><path d="M367.05,274a22.43,22.43,0,0,1-2.69.6c-25.94,1.09-29.9-2.72-29.9-28.7,0-14-.09-28.06,0-42.09.1-11.49,6.55-18.77,16.33-18.79S367,192.19,367,203.74C367.09,227.06,367.05,250.39,367.05,274Z"/><path d="M272,233.52H240.66c0-12.55-.67-24.91.26-37.14.53-6.84,8.53-11.56,15.73-11.35,7.64.22,14.64,5.43,15.12,13.06C272.51,209.66,272,221.31,272,233.52Z"/></svg>