<svg id="레이어_1" data-name="레이어 1" xmlns="http://www.w3.org/2000/svg" viewBox="0 0 512 512"><path d="M323.69,168.43c0,10.59,5.46,17.6,14.55,19a16.8,16.8,0,0,0,19.47-15.82c.24-4.39.09-8.8.09-13.2,0-28.53-.23-57.06.12-85.59.14-10.62-3.38-18.05-13.69-21.59H66.37C58.71,52.81,53.9,57.62,51.2,64.8v348c2.72,8.94,9.13,12.75,18,14.5C123.88,438,178.48,449.07,233.09,460a8.71,8.71,0,0,1,1.75.77H242c10.26-3.57,14.37-11,13.62-21.59-.28-4-.05-8-.05-12.6h82.27c13.56,0,19.93-6.46,19.93-20.14,0-32.79.06-65.59,0-98.39,0-12.92-11.71-21.23-23.2-16.74-7.09,2.77-10.88,9.05-10.89,18.28q0,38.79,0,77.59v5.07H255.6V122.86c0-12.16-3.67-17.14-15.18-20.62L191.21,87.35a8.38,8.38,0,0,1-3.44-1.74h135.9v4.83Q323.69,129.44,323.69,168.43Z"/><path d="M401.75,221.78c-7.48-7.49-14.09-14.16-20.75-20.79-4.51-4.49-6.93-9.68-5.81-16.19a17,17,0,0,1,26.59-10.86,21.79,21.79,0,0,1,2.44,2.06c16.85,16.85,33.78,33.62,50.48,50.62,7.38,7.51,7.16,17.4-.3,24.94q-24.86,25.14-49.94,50c-7.41,7.36-17.75,7.44-24.61.55s-6.6-17.15.62-24.68c3.41-3.56,6.93-7,10.44-10.47A95.69,95.69,0,0,0,401,256h-4q-44.47,0-89,0c-11.17,0-18.67-7.64-18.13-18.21a16.6,16.6,0,0,1,13.31-15.41,39.6,39.6,0,0,1,7.14-.56q42.69,0,85.38,0Z"/></svg>