<svg id="레이어_1" data-name="레이어 1" xmlns="http://www.w3.org/2000/svg" viewBox="0 0 512 512"><defs><style>.cls-1{fill:#fff;}</style></defs><path d="M51.2,412.8V64.8c2.7-7.18,7.51-12,15.17-13.6H344.23c10.31,3.54,13.83,11,13.69,21.59-.35,28.53-.12,57.06-.12,85.59,0,4.4.15,8.81-.09,13.2a16.8,16.8,0,0,1-19.47,15.82c-9.09-1.37-14.54-8.38-14.55-19q-.06-39,0-78V85.61H187.77a8.38,8.38,0,0,0,3.44,1.74l49.21,14.89c11.51,3.48,15.18,8.46,15.18,20.62V392.28h68.07v-5.07q0-38.79,0-77.59c0-9.23,3.8-15.51,10.89-18.28,11.49-4.49,23.17,3.82,23.2,16.74.09,32.8,0,65.6,0,98.39,0,13.68-6.37,20.13-19.93,20.14H255.6c0,4.61-.23,8.62.05,12.6.75,10.62-3.36,18-13.62,21.59h-7.19a8.71,8.71,0,0,0-1.75-.77c-54.61-11-109.21-22-163.87-32.73C60.33,425.55,53.92,421.74,51.2,412.8Z"/><path class="cls-1" d="M242,460.8c10.26-3.57,14.37-11,13.62-21.59-.28-4-.05-8-.05-12.6h82.27c13.56,0,19.93-6.46,19.93-20.14,0-32.79.06-65.59,0-98.39,0-12.92-11.71-21.23-23.2-16.74-7.09,2.77-10.88,9.05-10.89,18.28q0,38.79,0,77.59v5.07H255.6V122.86c0-12.16-3.67-17.14-15.18-20.62L191.21,87.35a8.38,8.38,0,0,1-3.44-1.74h135.9v4.83q0,39,0,78c0,10.59,5.46,17.6,14.55,19a16.8,16.8,0,0,0,19.47-15.82c.24-4.39.09-8.8.09-13.2,0-28.53-.23-57.06.12-85.59.14-10.62-3.38-18.05-13.69-21.59H460.8V460.8Zm159.72-239h-6.06q-42.69,0-85.38,0a39.6,39.6,0,0,0-7.14.56,16.6,16.6,0,0,0-13.31,15.41c-.54,10.57,7,18.19,18.13,18.21q44.49.07,89,0h4a95.69,95.69,0,0,1-10.07,11c-3.51,3.47-7,6.91-10.44,10.47-7.22,7.53-7.45,17.84-.62,24.68s17.2,6.81,24.61-.55q25.1-24.88,49.94-50c7.46-7.54,7.68-17.43.3-24.94-16.7-17-33.63-33.77-50.48-50.62a21.79,21.79,0,0,0-2.44-2.06,17,17,0,0,0-26.59,10.86c-1.12,6.51,1.3,11.7,5.81,16.19C387.66,207.62,394.27,214.29,401.75,221.78Z"/><path class="cls-1" d="M51.2,412.8c2.72,8.94,9.13,12.75,18,14.5C123.88,438,178.48,449.07,233.09,460a8.71,8.71,0,0,1,1.75.77H51.2Z"/><path class="cls-1" d="M66.37,51.2C58.71,52.81,53.9,57.62,51.2,64.8V51.2Z"/><path d="M401.75,221.78c-7.48-7.49-14.09-14.16-20.75-20.79-4.51-4.49-6.93-9.68-5.81-16.19a17,17,0,0,1,26.59-10.86,21.79,21.79,0,0,1,2.44,2.06c16.85,16.85,33.78,33.62,50.48,50.62,7.38,7.51,7.16,17.4-.3,24.94q-24.86,25.14-49.94,50c-7.41,7.36-17.75,7.44-24.61.55s-6.6-17.15.62-24.68c3.41-3.56,6.93-7,10.44-10.47A95.69,95.69,0,0,0,401,256h-4q-44.47,0-89,0c-11.17,0-18.67-7.64-18.13-18.21a16.6,16.6,0,0,1,13.31-15.41,39.6,39.6,0,0,1,7.14-.56q42.69,0,85.38,0Z"/></svg>