<svg id="레이어_1" data-name="레이어 1" xmlns="http://www.w3.org/2000/svg" viewBox="0 0 512 512"><path d="M455.45,174.24a305.38,305.38,0,0,1-13.65,83.42c-11.26,35.74-28.51,68.1-54.45,95.57-5.62,5.95-11.76,8.4-20,8.38q-147.12-.32-294.24-.14c-2.09,0-4.57.66-6.18-.24-3.85-2.12-8.87-4.29-10.4-7.77-1.36-3.09,0-9.33,2.47-11.84,37.87-38,56.57-84.85,64.31-136.86,1.49-10,2.11-20.09,3.17-30.52Z"/><path d="M126.45,384.87h10.34c76.91,0,153.81-.18,230.72.16,14.57.06,26.12-4.52,36.19-15,20.11-20.9,35.62-44.74,47.68-71a20.22,20.22,0,0,1,4.62-6.9v5.66q0,59,0,118c0,12.14-3.71,16-15.78,16q-149,.06-298,0c-12.16,0-15.69-3.68-15.76-16C126.4,405.94,126.45,396.07,126.45,384.87Z"/><path d="M126.52,149.69c0-12-.28-23.16.09-34.34.27-8.08,4.64-11.85,13.37-12,15.39-.19,30.78-.06,46.17-.07h9.9c2.29-9.4-2.54-24.17,14-22.9,13.39,1,9.39,13.26,11,22.24h57.68C280,93.45,276,80,291.21,80.33c14.36.32,10.71,13.17,11.66,22.52h58.82c1.36-9.06-2.94-22.14,12.76-22.71,7.91-.28,10.05,4.3,11.65,22.74,2.58.14,5.32.42,8,.42,14.87,0,29.74,0,44.61,0,14.16,0,17.23,3.18,17.24,17.63v28.73Z"/></svg>