<svg id="레이어_1" data-name="레이어 1" xmlns="http://www.w3.org/2000/svg" viewBox="0 0 512 512"><path d="M56,387.38v-237c1-.07,2.07-.19,3.1-.19H451.35c1.24,0,2.48.14,3.95.23V382.64c0,9.58-4.46,14-14.11,14H363.77c.49-1.77.78-3,1.18-4.21,3.7-11.16,6.15-22.59,6.25-34.35.23-27.55.39-55.1.14-82.64-.14-15.83-8.94-27.66-23.94-33.06-26.35-9.5-52.81-18.74-79.19-28.16a37.26,37.26,0,0,0-25.91.25q-38.48,13.78-77,27.36c-16.79,5.95-25.41,18-25.44,36,0,24.3-.27,48.6.12,72.89a220.53,220.53,0,0,0,2.86,28.62c.85,5.7,2.92,11.22,4.58,17.3H143c-24,0-48.09-.13-72.13.08C63.6,396.78,58.54,394.33,56,387.38Z"/><path d="M252.53,456c-8.79-2.62-18.07-4.19-26.28-8-40.45-19-61.75-51.08-62.89-95.81-.64-24.92-.15-49.88-.11-74.82,0-7.43,2.51-10.78,9.58-13.29q38.67-13.73,77.33-27.5a15.5,15.5,0,0,1,11,0q38.82,13.88,77.71,27.61c5.8,2,9.18,5.8,9.17,12.05,0,27.4.65,54.84-.39,82.21-1.72,45.2-34.78,84.55-78.69,95.26-3.38.83-6.78,1.58-10.17,2.37Zm1.28-107.77c-3.26-3.5-6.1-6.88-9.3-9.88a11.44,11.44,0,0,0-16.15.2,11.57,11.57,0,0,0-.29,16.18q8.87,9.3,18.18,18.18c4.27,4.08,11.11,4.39,15.27.36q17.34-16.81,34.17-34.15c3.45-3.55,3.82-8.15,1.58-12.68s-5.95-6.87-10.7-6.26a16.1,16.1,0,0,0-8.49,3.93C270,331.73,262.25,339.77,253.81,348.23Z"/><path d="M56,65.35c3.13-6.72,8.48-8.68,15.72-8.68q184.77.22,369.55.11c7.48,0,11.83,2.76,13.52,8.64a13,13,0,0,1,.48,3.45q0,28,0,56.12c0,.5-.09,1-.19,2H56ZM326,80.18a11.68,11.68,0,1,0,11.52,11.73A11.82,11.82,0,0,0,326,80.18Zm46.64,23.36A11.68,11.68,0,1,0,361,92,11.87,11.87,0,0,0,372.64,103.54ZM419.4,80.18a11.68,11.68,0,1,0,11.7,11.55A11.8,11.8,0,0,0,419.4,80.18Z"/></svg>