<svg id="레이어_1" data-name="레이어 1" xmlns="http://www.w3.org/2000/svg" viewBox="0 0 494.72 427.52"><defs><style>.cls-1{fill:#ef4136;}.cls-2{fill:#f0c419;}.cls-3{fill:#252d2d;}.cls-4{fill:#f45c58;}.cls-5{fill:#e5322e;}</style></defs><path class="cls-1" d="M255.93,392.76h-136l28.5-174.5s11-37.72,46-38l61.5-.5Z" transform="translate(-8.64 -42.24)"/><path class="cls-2" d="M78.24,295.25H8.64V284.46h69.6Z" transform="translate(-8.64 -42.24)"/><path class="cls-2" d="M433.49,295.11V284.43h69.87v10.68Z" transform="translate(-8.64 -42.24)"/><path class="cls-2" d="M250.24,42.24h11c.13,1.46.36,2.88.36,4.31,0,20.14-.12,40.3.12,60.44.06,4.6-2,5.22-5.68,5.08-3.36-.12-6,.12-5.94-4.85C250.39,85.77,250.24,64.3,250.24,42.24Z" transform="translate(-8.64 -42.24)"/><path class="cls-2" d="M384.72,77.85c-11.81,20.51-23.32,40.47-35,60.8L339.8,133l34.94-60.67Z" transform="translate(-8.64 -42.24)"/><path class="cls-2" d="M137.07,72.31c11.81,20.48,23.24,40.31,34.94,60.58l-9.75,5.82C150.54,118.4,139,98.37,127.15,77.89Z" transform="translate(-8.64 -42.24)"/><path class="cls-2" d="M105,195.88l-5.64,9.84-60.67-35,5.55-9.93Z" transform="translate(-8.64 -42.24)"/><path class="cls-2" d="M406.83,195.91l60.7-35,5.75,9.76-60.67,35.05Z" transform="translate(-8.64 -42.24)"/><rect class="cls-3" x="62.29" y="350.52" width="369" height="77" rx="26"/><path class="cls-4" d="M255.93,213.76v159h-92l15-127.9s4-31.2,31-31.1S255.93,213.76,255.93,213.76Z" transform="translate(-8.64 -42.24)"/><path class="cls-5" d="M255.93,392.76h136l-28.5-174.5s-11-37.72-46-38l-61.5-.5Z" transform="translate(-8.64 -42.24)"/></svg>