<svg id="레이어_1" data-name="레이어 1" xmlns="http://www.w3.org/2000/svg" viewBox="0 0 49.82 36.84"><defs><style>.cls-1,.cls-3{isolation:isolate;}.cls-2{fill:#a5eb78;}.cls-3{fill:#95d46c;}</style></defs><g class="cls-1"><path class="cls-2" d="M.08,27.17l7.64-7.65.39.37,9,9c1,1,1.81,1,2.87,0C27.27,21.6,20,29,42.15,6.58l7.74,7.7c-.09.1-.2.23-.33.35l-27,27a5.42,5.42,0,0,1-8,0L.41,27.52Z" transform="translate(-0.08 -6.58)"/></g><path class="cls-3" d="M19,40s-2.2,2.74-3.6,2.38a5.36,5.36,0,0,0,7.16-.74l27-27c.13-.12.24-.25.33-.35l-2.54-2.53h0Z" transform="translate(-0.08 -6.58)"/></svg>