<svg id="레이어_1" data-name="레이어 1" xmlns="http://www.w3.org/2000/svg" viewBox="0 0 49.87 44.65"><defs><style>.cls-1{fill:#f0c419;}.cls-1,.cls-2,.cls-3{isolation:isolate;}.cls-2{fill:#f29c1f;}.cls-4{fill:#35495e;}.cls-5{fill:#2c3e50;}</style></defs><path class="cls-1" d="M49.87,40.94a7.33,7.33,0,0,1-1.37,3.49,7,7,0,0,1-5.87,2.9H25V43.09a3.47,3.47,0,0,0,0-6.94V32.78a3.52,3.52,0,0,0,3.32-2.71,6.87,6.87,0,0,0,.1-1.36c0-2.53,0-5.07,0-7.6s0-5.13,0-7.7a3.61,3.61,0,0,0-3.43-4V2.69a7.06,7.06,0,0,1,6,3.48Q39.85,21.29,48.68,36.4a8.84,8.84,0,0,1,1.22,3.25A5,5,0,0,1,49.87,40.94Z" transform="translate(-0.07 -2.69)"/><path class="cls-2" d="M.13,40.94A7.33,7.33,0,0,0,1.5,44.43a7,7,0,0,0,5.87,2.9H25V43.09a3.47,3.47,0,0,1,0-6.94V32.78a3.52,3.52,0,0,1-3.32-2.71,6.87,6.87,0,0,1-.1-1.36c0-2.53,0-5.07,0-7.6s0-5.13,0-7.7a3.61,3.61,0,0,1,3.43-4V2.69a7.06,7.06,0,0,0-6,3.48Q10.15,21.29,1.32,36.4A8.84,8.84,0,0,0,.1,39.65,5,5,0,0,0,.13,40.94Z" transform="translate(-0.07 -2.69)"/><g class="cls-3"><path class="cls-4" d="M25.41,32.75a3.52,3.52,0,0,0,3.07-3.54q0-8.1,0-16.22a3.38,3.38,0,0,0-2-3.23,3.21,3.21,0,0,0-1.53-.33V32.76A4.21,4.21,0,0,0,25.41,32.75Z" transform="translate(-0.07 -2.69)"/><path class="cls-4" d="M25.24,36.13l-.24,0v6.94l.27,0a3.49,3.49,0,0,0,0-7Z" transform="translate(-0.07 -2.69)"/></g><g class="cls-3"><path class="cls-5" d="M24.64,32.75a3.52,3.52,0,0,1-3.07-3.54q0-8.1,0-16.22a3.38,3.38,0,0,1,2-3.23,3.21,3.21,0,0,1,1.53-.33V32.76A4.21,4.21,0,0,1,24.64,32.75Z" transform="translate(-0.07 -2.69)"/><path class="cls-5" d="M24.89,36.11l.25,0v6.94l-.27,0a3.49,3.49,0,0,1,0-7Z" transform="translate(-0.07 -2.69)"/></g></svg>