<?xml version="1.0" encoding="utf-8"?>
<!-- Generator: Adobe Illustrator 25.1.0, SVG Export Plug-In . SVG Version: 6.00 Build 0)  -->
<svg version="1.1" id="레이어_1" xmlns="http://www.w3.org/2000/svg" xmlns:xlink="http://www.w3.org/1999/xlink" x="0px"
	 y="0px" viewBox="0 0 25 25" style="enable-background:new 0 0 25 25;" xml:space="preserve">
<style type="text/css">
	.st0{fill:#F17A9E;}
	.st1{fill:#FFFFFF;}
</style>
<g>
	<g>
		<circle class="st0" cx="12.5" cy="12.5" r="12.5"/>
	</g>
	<g>
		<path class="st1" d="M13.8,14.61c-0.02,0.64-0.29,0.99-0.93,1.09c-0.69,0.1-1.69-0.01-1.67-0.91c-0.11-3-0.22-6-0.32-9
			c-0.03-0.97,0.58-1.53,1.61-1.54c1.01-0.01,1.64,0.57,1.62,1.53c-0.04,1.47-0.09,2.93-0.14,4.4
			C13.97,10.18,13.85,13.13,13.8,14.61z"/>
		<path class="st1" d="M14.21,19.02c0.01,0.91-0.78,1.73-1.69,1.73c-0.92,0.01-1.71-0.76-1.72-1.69c-0.02-0.94,0.75-1.74,1.7-1.75
			C13.41,17.3,14.2,18.09,14.21,19.02z"/>
	</g>
</g>
</svg>
