<?xml version="1.0" encoding="utf-8"?>
<!-- Generator: Adobe Illustrator 25.1.0, SVG Export Plug-In . SVG Version: 6.00 Build 0)  -->
<svg version="1.1" id="레이어_1" xmlns="http://www.w3.org/2000/svg" xmlns:xlink="http://www.w3.org/1999/xlink" x="0px"
	 y="0px" viewBox="0 0 55 50" style="enable-background:new 0 0 55 50;" xml:space="preserve">
<style type="text/css">
	.st0{fill:#FFFFFF;}
	.st1{fill:#999999;}
</style>
<g id="그룹_18654" transform="translate(-1731 -410)">
	<g id="그룹_18541">
		<g id="그룹_18531">
			<rect id="사각형_23933" x="1731" y="410" class="st0" width="55" height="50"/>
			<g id="그룹_18530" transform="translate(1612.012 -41.162)">
				<path id="패스_7707" class="st1" d="M133.6,460.4c0,1.3,0,2.5,0,3.7c-0.1,1.6,1.1,3,2.7,3.1c0.4,0,0.8,0,1.2-0.2
					c1.1-0.3,2-1.2,2-2.4c0.1-1.1,0-2.3,0-3.4c0-0.3,0-0.6,0-0.9H153c0,1.2,0,2.4,0,3.5c-0.1,2.9,2.2,3.8,4.5,3.1
					c1-0.3,1.7-1.3,1.6-2.4c0-1.4,0-2.8,0-4.2c1.5,0,2.9-0.1,4.4,0c1.1,0.2,1.9,1.1,1.9,2.2c0,0.2,0,0.4,0,0.7c0,9.5,0,19,0,28.5
					c0,2-0.9,3-3,3c-10.8,0-21.6,0-32.4,0c-2,0-3-0.9-3-3c0-9.5,0-19.1,0-28.6c0-2,0.9-2.9,2.9-2.9c1.1,0,2.3,0,3.4,0
					C133.4,460.3,133.5,460.3,133.6,460.4z M129.5,470v22.2h33.3V470L129.5,470z"/>
				<path id="패스_7708" class="st1" d="M154.2,461.6c0-0.9,0-1.8,0-2.8c-0.1-0.8,0.6-1.6,1.4-1.6c0.1,0,0.2,0,0.2,0
					c1.2,0,1.9,0.5,1.9,1.5c0,1.9,0,3.8,0,5.7c0,1.1-0.7,1.6-1.9,1.5c-0.8,0.1-1.6-0.5-1.7-1.4c0-0.1,0-0.2,0-0.2
					C154.2,463.4,154.2,462.5,154.2,461.6z"/>
				<path id="패스_7709" class="st1" d="M138.4,461.6c0,0.9,0,1.8,0,2.8c0.1,0.8-0.6,1.6-1.4,1.6c-0.1,0-0.2,0-0.3,0
					c-1.2,0-1.8-0.5-1.9-1.5c0-1.9,0-3.8,0-5.7c0-1,0.7-1.5,1.8-1.5s1.7,0.5,1.7,1.6C138.4,459.8,138.4,460.7,138.4,461.6z"/>
				<path id="패스_7710" class="st1" d="M149.5,477.5c-0.6,0-1.2,0-1.8,0c-0.5,0-0.7-0.1-0.7-0.6c0-1.1,0-2.1,0-3.2
					c0-0.4,0.2-0.6,0.6-0.6c1.3,0,2.5,0,3.8,0c0.5,0,0.6,0.2,0.6,0.7c0,1,0,2.1,0,3.1c0,0.5-0.2,0.7-0.7,0.7
					C150.8,477.4,150.2,477.5,149.5,477.5z"/>
				<path id="패스_7711" class="st1" d="M156.8,477.5c-0.6,0-1.2,0-1.9,0c-0.4,0-0.7-0.1-0.7-0.6c0-1.1,0-2.2,0-3.3
					c0-0.5,0.2-0.6,0.6-0.6c1.3,0,2.5,0,3.8,0c0.4,0,0.6,0.2,0.6,0.6c0,1.1,0,2.1,0,3.2c0,0.5-0.2,0.7-0.7,0.6
					C158,477.4,157.4,477.5,156.8,477.5z"/>
				<path id="패스_7712" class="st1" d="M135.3,479.2c0.6,0,1.2,0,1.9,0c0.4,0,0.6,0.1,0.6,0.6c0,1.1,0,2.2,0,3.3
					c0,0.4-0.2,0.6-0.6,0.6c-1.3,0-2.6,0-3.9,0c-0.5,0-0.6-0.2-0.6-0.6c0-1.1,0-2.1,0-3.2c0-0.4,0.2-0.6,0.6-0.6
					C134,479.3,134.6,479.2,135.3,479.2z"/>
				<path id="패스_7713" class="st1" d="M142.4,479.2c0.6,0,1.2,0,1.9,0c0.5,0,0.7,0.1,0.7,0.6c0,1.1,0,2.1,0,3.2
					c0,0.5-0.2,0.6-0.6,0.6c-1.3,0-2.5,0-3.8,0c-0.5,0-0.6-0.2-0.6-0.7c0-1,0-2.1,0-3.1c0-0.5,0.2-0.7,0.7-0.7
					C141.2,479.3,141.8,479.2,142.4,479.2z"/>
				<path id="패스_7714" class="st1" d="M149.6,483.7c-0.6,0-1.2,0-1.9,0c-0.5,0-0.7-0.2-0.7-0.6c0-1.1,0-2.1,0-3.2
					c0-0.4,0.2-0.6,0.6-0.6c1.3,0,2.5,0,3.8,0c0.5,0,0.6,0.2,0.6,0.7c0,1,0,2.1,0,3.1c0,0.5-0.2,0.7-0.7,0.7
					C150.9,483.7,150.2,483.7,149.6,483.7z"/>
				<path id="패스_7715" class="st1" d="M156.8,479.2c0.6,0,1.3,0,1.9,0c0.4,0,0.6,0.2,0.6,0.6c0,1.1,0,2.2,0,3.3
					c0,0.4-0.1,0.6-0.6,0.6c-1.3,0-2.6,0-4,0c-0.3-0.1-0.5-0.3-0.5-0.5c0-1.1,0-2.2,0-3.4c0-0.4,0.2-0.6,0.6-0.6
					C155.5,479.3,156.1,479.2,156.8,479.2z"/>
				<path id="패스_7716" class="st1" d="M135.3,489.9c-0.6,0-1.3,0-1.9,0c-0.4,0-0.6-0.1-0.6-0.6c0-1.1,0-2.1,0-3.2
					c0-0.4,0.2-0.6,0.6-0.6c1.3,0,2.5,0,3.8,0c0.4,0,0.6,0.1,0.6,0.6c0,1.1,0,2.1,0,3.2c0,0.5-0.2,0.6-0.6,0.6
					C136.6,489.9,135.9,489.9,135.3,489.9z"/>
				<path id="패스_7717" class="st1" d="M142.4,489.9c-0.6,0-1.2,0-1.8,0c-0.5,0-0.7-0.2-0.7-0.7c0-1,0-2,0-3.1
					c0-0.5,0.1-0.7,0.6-0.7c1.3,0,2.5,0,3.8,0c0.5,0,0.6,0.2,0.6,0.6c0,1,0,2.1,0,3.1c0,0.5-0.2,0.7-0.7,0.7
					C143.6,489.9,143,489.9,142.4,489.9z"/>
				<path id="패스_7718" class="st1" d="M149.6,485.5c0.6,0,1.2,0,1.9,0c0.4,0,0.6,0.2,0.6,0.6c0,1.1,0,2.1,0,3.2
					c0,0.5-0.2,0.6-0.6,0.6c-1.3,0-2.5,0-3.8,0c-0.4,0-0.6-0.2-0.6-0.6c0-1.1,0-2.1,0-3.2c0-0.4,0.2-0.6,0.6-0.6
					C148.3,485.5,149,485.5,149.6,485.5z"/>
				<path id="패스_7719" class="st1" d="M156.8,489.9c-0.6,0-1.3,0-1.9,0c-0.4,0-0.6-0.2-0.6-0.6c0-1.1,0-2.2,0-3.3
					c0-0.4,0.2-0.6,0.6-0.6c1.3,0,2.6,0,3.9,0c0.4,0,0.6,0.2,0.6,0.6c0,1.1,0,2.2,0,3.3c0,0.4-0.2,0.6-0.6,0.6
					C158.1,489.9,157.4,489.9,156.8,489.9z"/>
			</g>
		</g>
	</g>
</g>
</svg>
