<?xml version="1.0" encoding="utf-8"?>
<!-- Generator: Adobe Illustrator 25.1.0, SVG Export Plug-In . SVG Version: 6.00 Build 0)  -->
<svg version="1.1" id="레이어_1" xmlns="http://www.w3.org/2000/svg" xmlns:xlink="http://www.w3.org/1999/xlink" x="0px"
	 y="0px" viewBox="0 0 55 50" style="enable-background:new 0 0 55 50;" xml:space="preserve">
<style type="text/css">
	.st0{fill:#FFFFFF;}
	.st1{fill:#999999;}
</style>
<g id="그룹_18535" transform="translate(-1950 -227)">
	<rect id="사각형_23936" x="1950" y="227" class="st0" width="55" height="50"/>
	<g id="그룹_18532" transform="translate(1482.938 -256.913)">
		<path id="패스_7720" class="st1" d="M503.1,486.9c0,1.8,0,3.5,0,5.3c0,0.5,0.1,1,0.2,1.5c0.4,1.2,1.6,1.9,2.8,1.8
			c1.8,0,3.6,0,5.4,0v24.3l-2-0.7c0.9-1.7,1.5-3.7,1.5-5.7c0-6.3-5.1-11.5-11.4-11.5c-6.3,0-11.5,5.1-11.5,11.4
			c0,6.3,5.1,11.5,11.4,11.5c1.6,0,3.3-0.3,4.8-1c1.1-0.5,1.2-0.4,1.5,0.8c0.2,0.6,0.5,1.2,1,1.7c0.6,0.6,1.2,1.1,1.8,1.6l-0.2,0.3
			h-27.5c-1.6,0-1.7-0.2-1.7-1.7c0-12.6,0-25.2,0-37.8c0-1.5,0.2-1.7,1.7-1.7L503.1,486.9L503.1,486.9z M490.7,499.8
			c0.8,0,1.5,0,2.2,0c0.5,0,0.8-0.2,0.8-0.8c0-0.8,0-1.6,0-2.5c0-0.6-0.3-0.8-0.8-0.8c-0.7,0-1.4,0-2.2,0c0-0.8,0-1.5,0-2.3
			c0-0.5-0.2-0.8-0.8-0.8c-0.8,0-1.6,0-2.5,0c-0.6,0-0.8,0.2-0.8,0.8c0,0.7,0,1.4,0,2.2c-0.8,0-1.5,0-2.1,0c-0.6,0-0.9,0.2-0.9,0.8
			c0,0.8,0,1.6,0,2.4c0,0.6,0.2,0.8,0.8,0.8c0.7,0,1.4,0,2.2,0c0,0.8,0,1.5,0,2.1s0.2,1,0.9,0.9c0.8,0,1.5,0,2.3,0
			c0.6,0,0.9-0.2,0.9-0.8C490.7,501.3,490.7,500.6,490.7,499.8L490.7,499.8z"/>
		<path id="패스_7721" class="st1" d="M507.1,519.2c0.7,0.6,1.3,1.2,2,1.9c0.1,0.1,0.3,0.3,0.5,0.2c1-0.2,1.5,0.4,2,1
			c1.9,1.9,3.8,3.8,5.7,5.8c0.9,0.9,0.9,1.4,0,2.3c-2,2.1-2,2.1-4.1,0.1c-1.8-1.8-3.6-3.5-5.3-5.3c-0.3-0.4-0.5-0.9-0.6-1.4
			c-0.1-0.2-0.1-0.5-0.3-0.7c-0.6-0.7-1.2-1.3-1.8-2c-2.5,1.9-5.7,2.5-8.7,1.6c-2.2-0.6-4.1-2.1-5.4-4c-2.9-4.5-1.6-10.5,2.9-13.3
			c3.5-2.3,8.1-2,11.4,0.7C509.6,509.2,510.3,515.1,507.1,519.2z M506.4,513.3c0-3.8-3.1-7-6.9-7c-3.8,0-7,3.1-7,6.9
			c0,3.8,3.1,7,6.9,7c0,0,0,0,0,0C503.3,520.3,506.4,517.2,506.4,513.3L506.4,513.3z"/>
		<path id="패스_7722" class="st1" d="M504.9,487c2.2,2.2,4.3,4.2,6.3,6.3c0.1,0.1,0.1,0.1,0.1,0.3c-1.9,0-3.8,0-5.7,0
			c-0.4-0.1-0.6-0.4-0.7-0.7C504.9,490.9,504.9,489.1,504.9,487z"/>
	</g>
</g>
</svg>
