<?xml version="1.0" encoding="utf-8"?>
<!-- Generator: Adobe Illustrator 25.1.0, SVG Export Plug-In . SVG Version: 6.00 Build 0)  -->
<svg version="1.1" id="레이어_1" xmlns="http://www.w3.org/2000/svg" xmlns:xlink="http://www.w3.org/1999/xlink" x="0px"
	 y="0px" viewBox="0 0 55 50" style="enable-background:new 0 0 55 50;" xml:space="preserve">
<style type="text/css">
	.st0{fill:#FFFFFF;}
	.st1{fill:#999999;}
	.st2{clip-path:url(#SVGID_2_);}
	.st3{clip-path:url(#SVGID_4_);}
	.st4{clip-path:url(#SVGID_6_);}
	.st5{clip-path:url(#SVGID_8_);}
</style>
<g id="그룹_18653" transform="translate(-1731 -230)">
	<g id="그룹_18533">
		<rect id="사각형_23934" x="1731" y="230" class="st0" width="55" height="50"/>
		<g id="그룹_18517" transform="translate(1181.915 159.525)">
			<path id="패스_7696" class="st1" d="M576.8,72.5c-13.7,0-24.8,8.7-24.8,19.4c0,7,4.7,13.1,11.7,16.5c-0.5,1.9-1.9,6.9-2.1,8
				c-0.3,1.3,0.5,1.3,1,1c0.4-0.3,6.8-4.6,9.5-6.4c1.5,0.2,3.1,0.3,4.6,0.3c13.7,0,24.8-8.7,24.8-19.4S590.5,72.5,576.8,72.5"/>
			<g id="그룹_18516" transform="translate(558.493 85.768)">
				<g id="그룹_18506" transform="translate(0 0)">
					<g id="그룹_18505">
						<path id="패스_7697" class="st0" d="M1.1,2.5h2.6c0,0,0,7,0,8.7c0,1.2,2.7,1.2,2.7,0l0-8.6c0,0,0.9,0,2.6,0
							c0.7,0,1.2-0.6,1.2-1.3c0-0.6-0.5-1.2-1.2-1.2C7.1,0.1,1.1,0,1.1,0C0.4,0.1-0.1,0.7,0,1.3C0.1,1.9,0.5,2.4,1.1,2.5"/>
						<g>
							<defs>
								<path id="SVGID_1_" d="M1.1,2.5h2.6c0,0,0,7,0,8.7c0,1.2,2.7,1.2,2.7,0l0-8.6c0,0,0.9,0,2.6,0c0.7,0,1.2-0.6,1.2-1.3
									c0-0.6-0.5-1.2-1.2-1.2C7.1,0.1,1.1,0,1.1,0C0.4,0.1-0.1,0.7,0,1.3C0.1,1.9,0.5,2.4,1.1,2.5"/>
							</defs>
							<clipPath id="SVGID_2_">
								<use xlink:href="#SVGID_1_"  style="overflow:visible;"/>
							</clipPath>
							<g id="그룹_18504" class="st2">
								<rect id="사각형_23923" x="-0.4" y="0" class="st0" width="10.9" height="12.4"/>
							</g>
						</g>
					</g>
				</g>
				<g id="그룹_18509" transform="translate(8.104 0.051)">
					<g id="그룹_18508">
						<path id="패스_7699" class="st0" d="M5.4,2.9l1.4,4.5h-3L5.4,2.9z M3.8,0.8c-0.6,1.4-2.9,8-3.7,9.7c-0.5,1.3,1.8,2.3,2.4,1
							L3,9.7h4.7c0,0-0.2,0.1,0.5,1.7c0.5,1.3,2.9,0.4,2.4-0.9C9.8,8.6,7.3,1.7,6.9,0.8C6.5,0.2,5.9-0.1,5.2,0
							C4.6-0.1,4,0.2,3.8,0.8"/>
						<g>
							<defs>
								<path id="SVGID_3_" d="M5.4,2.9l1.4,4.5h-3L5.4,2.9z M3.8,0.8c-0.6,1.4-2.9,8-3.7,9.7c-0.5,1.3,1.8,2.3,2.4,1L3,9.7h4.7
									c0,0-0.2,0.1,0.5,1.7c0.5,1.3,2.9,0.4,2.4-0.9C9.8,8.6,7.3,1.7,6.9,0.8C6.5,0.2,5.9-0.1,5.2,0C4.6-0.1,4,0.2,3.8,0.8"/>
							</defs>
							<clipPath id="SVGID_4_">
								<use xlink:href="#SVGID_3_"  style="overflow:visible;"/>
							</clipPath>
							<g id="그룹_18507" class="st3">
								<rect id="사각형_23924" x="-0.5" y="0" class="st0" width="11.5" height="12.8"/>
							</g>
						</g>
					</g>
				</g>
				<g id="그룹_18512" transform="translate(19.603 0.053)">
					<g id="그룹_18511">
						<path id="패스_7701" class="st0" d="M0,1.2c0,2.2,0,9.4,0,9.4S-0.2,12,1,12s3.9,0,5.2,0s1.2-2.6,0-2.6s-3.4,0-3.4,0
							s0-6.7,0-8.3C2.6,0.4,1.9-0.1,1.1,0C0.6,0.1,0.1,0.6,0,1.2"/>
						<g>
							<defs>
								<path id="SVGID_5_" d="M0,1.2c0,2.2,0,9.4,0,9.4S-0.2,12,1,12s3.9,0,5.2,0s1.2-2.6,0-2.6s-3.4,0-3.4,0s0-6.7,0-8.3
									C2.6,0.4,1.9-0.1,1.1,0C0.6,0.1,0.1,0.6,0,1.2"/>
							</defs>
							<clipPath id="SVGID_6_">
								<use xlink:href="#SVGID_5_"  style="overflow:visible;"/>
							</clipPath>
							<g id="그룹_18510" class="st4">
								<rect id="사각형_23925" x="-0.2" y="0" class="st0" width="7.6" height="12"/>
							</g>
						</g>
					</g>
				</g>
				<g id="그룹_18515" transform="translate(27.329 0.058)">
					<g id="그룹_18514">
						<path id="패스_7703" class="st0" d="M0,0.8c0,1,0,9.8,0,10.5c0,1,2.6,1,2.6,0c0-1.2,0-3.5,0-3.5l0.8-0.6l3.4,4.6
							c0.7,0.9,2.8-0.7,2.2-1.6L5.4,5.5c0,0,2.4-2.6,3.4-3.6C9.3,1.3,7.6-0.4,7,0.1C6.5,0.6,2.7,4.5,2.7,4.5s0-2.4,0-3.7
							C2.6,0.2,2,0,1.4,0C0.7,0,0,0.3,0,0.8"/>
						<g>
							<defs>
								<path id="SVGID_7_" d="M0,0.8c0,1,0,9.8,0,10.5c0,1,2.6,1,2.6,0c0-1.2,0-3.5,0-3.5l0.8-0.6l3.4,4.6c0.7,0.9,2.8-0.7,2.2-1.6
									L5.4,5.5c0,0,2.4-2.6,3.4-3.6C9.3,1.3,7.6-0.4,7,0.1C6.5,0.6,2.7,4.5,2.7,4.5s0-2.4,0-3.7C2.6,0.2,2,0,1.4,0
									C0.7,0,0,0.3,0,0.8"/>
							</defs>
							<clipPath id="SVGID_8_">
								<use xlink:href="#SVGID_7_"  style="overflow:visible;"/>
							</clipPath>
							<g id="그룹_18513" class="st5">
								<rect id="사각형_23926" x="0" y="-0.4" class="st0" width="9.6" height="13.2"/>
							</g>
						</g>
					</g>
				</g>
			</g>
		</g>
	</g>
</g>
</svg>
