<?xml version="1.0" encoding="utf-8"?>
<!-- Generator: Adobe Illustrator 25.1.0, SVG Export Plug-In . SVG Version: 6.00 Build 0)  -->
<svg version="1.1" id="레이어_1" xmlns="http://www.w3.org/2000/svg" xmlns:xlink="http://www.w3.org/1999/xlink" x="0px"
	 y="0px" viewBox="0 0 50 50" style="enable-background:new 0 0 50 50;" xml:space="preserve">
<style type="text/css">
	.st0{fill:#191919;}
	.st1{fill:none;}
</style>
<g id="그룹_18580" transform="translate(-3201 83)">
	<g id="그룹_18579" transform="translate(3209.277 -71.412)">
		<path id="사각형_23693" class="st0" d="M1.2,24.4h31c0.8,0,1.5,0.7,1.5,1.5l0,0c0,0.8-0.7,1.5-1.5,1.5h-31
			c-0.8,0-1.5-0.7-1.5-1.5l0,0C-0.3,25.1,0.4,24.4,1.2,24.4z"/>
		<path id="사각형_23694" class="st0" d="M1.2,12.4h31c0.8,0,1.5,0.7,1.5,1.5l0,0c0,0.8-0.7,1.5-1.5,1.5h-31
			c-0.8,0-1.5-0.7-1.5-1.5l0,0C-0.3,13.1,0.4,12.4,1.2,12.4z"/>
		<path id="사각형_23865" class="st0" d="M1.2,0.4h31c0.8,0,1.5,0.7,1.5,1.5l0,0c0,0.8-0.7,1.5-1.5,1.5h-31
			c-0.8,0-1.5-0.7-1.5-1.5l0,0C-0.3,1.1,0.4,0.4,1.2,0.4z"/>
	</g>
	<rect id="사각형_23944" x="3201" y="-83" class="st1" width="50" height="50"/>
</g>
</svg>
