<?xml version="1.0" encoding="utf-8"?>
<!-- Generator: Adobe Illustrator 25.1.0, SVG Export Plug-In . SVG Version: 6.00 Build 0)  -->
<svg version="1.1" id="레이어_1" xmlns="http://www.w3.org/2000/svg" xmlns:xlink="http://www.w3.org/1999/xlink" x="0px"
	 y="0px" viewBox="0 0 55 50" style="enable-background:new 0 0 55 50;" xml:space="preserve">
<style type="text/css">
	.st0{fill:#FFFFFF;}
	.st1{fill:#999999;}
	.st2{fill:#06BE34;}
</style>
<g id="그룹_18658" transform="translate(1540 -104)">
	<g id="그룹_18655" transform="translate(-3271 -216)">
		<g id="그룹_18547">
			<rect id="사각형_23935" x="1731" y="320" class="st0" width="55" height="50"/>
		</g>
	</g>
	<g id="그룹_18656" transform="translate(-1667.893 -57.893)">
		<g id="그룹_18521" transform="translate(131.893 163.893)">
			<g id="그룹_18519">
				<path id="패스_7705" class="st1" d="M42.1,47H4.9C2.2,47,0,44.8,0,42.1V4.9C0,2.2,2.2,0,4.9,0h37.2C44.8,0,47,2.2,47,4.9v37.2
					C47,44.8,44.8,47,42.1,47z M4.9,1.1c-2.1,0-3.8,1.7-3.8,3.8v37.2c0,2.1,1.7,3.8,3.8,3.8h37.2c2.1,0,3.8-1.7,3.8-3.8V4.9
					c0-2.1-1.7-3.8-3.8-3.8H4.9z"/>
			</g>
			<g id="그룹_18520" transform="translate(12.159 13.072)">
				<path id="패스_7706" class="st2" d="M22.7,0v20.9h-7.6L7.6,10.4v10.5H0V0h7.6l7.5,10.9V0H22.7z"/>
			</g>
		</g>
	</g>
</g>
</svg>
