<?xml version="1.0" encoding="utf-8"?>
<!-- Generator: Adobe Illustrator 25.1.0, SVG Export Plug-In . SVG Version: 6.00 Build 0)  -->
<svg version="1.1" id="레이어_1" xmlns="http://www.w3.org/2000/svg" xmlns:xlink="http://www.w3.org/1999/xlink" x="0px"
	 y="0px" viewBox="0 0 48 44" style="enable-background:new 0 0 48 44;" xml:space="preserve">
<style type="text/css">
	.st0{fill:none;}
	.st1{fill:#999999;}
</style>
<g id="그룹_18627" transform="translate(-1252 -60)">
	<g id="그룹_18626" transform="translate(-479.1 -530)">
		<rect id="사각형_23937" x="1731.1" y="590" class="st0" width="48" height="44"/>
		<g id="그룹_18502" transform="translate(1738.124 594.429)">
			<g id="그룹_18501" transform="translate(0 0)">
				<path id="패스_7689" class="st1" d="M15.9,12.4h3.6c0-0.9,0-1.7,0-2.5c0-0.8,0.3-1,1-1c0.5,0,1,0,1.5,0
					c0.5-0.1,0.9,0.3,0.9,0.7c0,0.1,0,0.1,0,0.2c0,0.7,0,1.4,0,2.1c0,0.4,0.2,0.6,0.6,0.5c0.6,0,1.3,0,1.9,0c0.6,0,1.2,0.3,1.6,0.9
					c2.8,4.5,5.2,9.2,6.1,14.6c0.3,1.9,0.4,3.8,0.5,5.7c0.1,0.9-0.6,1.8-1.5,1.9c-0.1,0-0.3,0-0.4,0c-9.3,0-18.6,0-28,0
					c-1,0.1-1.8-0.6-1.9-1.6c0-0.1,0-0.3,0-0.4c0-5.7,1.5-11.4,4.4-16.4c0.7-1.2,1.4-2.4,2.1-3.6c0.3-0.7,1.1-1.1,1.9-1.1
					c0.6,0,1.1,0,1.7,0c0.6,0.1,0.7-0.2,0.7-0.7c0-0.6,0-1.2,0-1.9c0-0.7,0.3-1,1-1c0.5,0,1,0,1.5,0c0.7,0,1,0.3,1,1
					C15.9,10.7,15.9,11.5,15.9,12.4z M17.7,31.9c3.9,0,7.1-3.1,7.1-7s-3.1-7.1-7-7.1c-3.9,0-7.1,3.1-7.1,7c0,0,0,0,0,0
					C10.6,28.7,13.8,31.8,17.7,31.9C17.7,31.9,17.7,31.9,17.7,31.9L17.7,31.9z"/>
				<path id="패스_7690" class="st1" d="M31,12.4c-0.6,0-1.2,0-1.9,0c-1.4,0-2.6-1.1-2.6-2.5c0-0.4,0.1-0.7,0.2-1.1
					c0.7-1.8,0.1-3-1.8-3.4c-4.7-0.9-9.6-1-14.3,0C9.4,5.5,8.5,6.6,8.6,7.9c0,0.3,0.1,0.7,0.3,1c0.6,1.3,0,2.8-1.2,3.4
					c-0.4,0.2-0.8,0.2-1.2,0.2c-1.2,0-2.5,0-3.7,0c-1.4,0.1-2.6-1-2.7-2.4c0-0.1,0-0.2,0-0.3c-0.1-2.1,0.8-4.2,2.6-5.4
					c2.3-1.8,5.1-3,7.9-3.5c5.8-1.3,11.9-1,17.6,0.9c1.8,0.6,3.5,1.5,5,2.8c0.4,0.4,0.8,0.8,1.1,1.2c0.8,0.9,1.2,2,1.1,3.2
					c0,0.5,0,0.9,0,1.4c0.1,1.1-0.7,2.1-1.9,2.2c-0.1,0-0.2,0-0.3,0C32.5,12.5,31.8,12.4,31,12.4L31,12.4z"/>
				<path id="패스_7691" class="st1" d="M17.7,21.3c2,0,3.5,1.5,3.6,3.5c0,0,0,0,0,0c0,2-1.6,3.5-3.6,3.5s-3.5-1.6-3.5-3.6l0,0
					C14.2,22.9,15.8,21.3,17.7,21.3z"/>
			</g>
		</g>
	</g>
</g>
</svg>
