<?xml version="1.0" encoding="utf-8"?>
<!-- Generator: Adobe Illustrator 25.1.0, SVG Export Plug-In . SVG Version: 6.00 Build 0)  -->
<svg version="1.1" id="레이어_1" xmlns="http://www.w3.org/2000/svg" xmlns:xlink="http://www.w3.org/1999/xlink" x="0px"
	 y="0px" viewBox="0 0 20 20" style="enable-background:new 0 0 20 20;" xml:space="preserve">
<style type="text/css">
	.st0{fill:#D2D0C1;}
</style>
<path id="패스_7692" class="st0" d="M14.1,20c0.8,0,1.6-0.3,2.1-0.9c0.4-0.4,0.8-0.8,1.3-1.3c0.6-0.5,0.8-1.4,0.3-2
	c-0.1-0.1-0.2-0.2-0.3-0.3c-0.7-0.7-1.5-1.5-2.2-2.2c-0.5-0.6-1.4-0.8-2-0.3c-0.1,0.1-0.2,0.2-0.3,0.3c-0.4,0.4-0.9,0.9-1.3,1.3
	c-0.1,0.2-0.4,0.2-0.6,0.1c0,0,0,0,0,0c-0.6-0.3-1.2-0.7-1.8-1.1c-1.7-1.2-3.1-2.8-4.1-4.7C5.1,8.7,5.2,8.4,5.4,8.3
	C5.8,7.8,6.3,7.4,6.7,7C7.3,6.5,7.4,5.6,7,5C6.9,4.9,6.8,4.8,6.7,4.7C6,3.9,5.2,3.2,4.4,2.4C3.9,1.8,3,1.7,2.4,2.2
	C2.3,2.3,2.3,2.4,2.2,2.4C1.8,2.9,1.4,3.3,0.9,3.7C0.3,4.3-0.1,5.1,0,6c0.1,1.2,0.4,2.3,0.9,3.3c1.9,4.2,5.3,7.6,9.4,9.6
	C11.5,19.6,12.8,19.9,14.1,20z M10.3,0l-0.2,1.5c4.2,0.6,7.6,3.9,8.4,8.1L20,9.4C19.2,4.5,15.3,0.7,10.3,0L10.3,0z M15.9,9.6
	c-0.5-2.9-2.8-5.2-5.8-5.6L9.9,5.5c2.3,0.3,4.1,2.1,4.5,4.4L15.9,9.6z"/>
</svg>
