<?xml version="1.0" encoding="utf-8"?>
<!-- Generator: Adobe Illustrator 25.1.0, SVG Export Plug-In . SVG Version: 6.00 Build 0)  -->
<svg version="1.1" id="레이어_1" xmlns="http://www.w3.org/2000/svg" xmlns:xlink="http://www.w3.org/1999/xlink" x="0px"
	 y="0px" viewBox="0 0 55 50" style="enable-background:new 0 0 55 50;" xml:space="preserve">
<style type="text/css">
	.st0{fill:#FFFFFF;}
	.st1{fill:#999999;}
</style>
<g id="그룹_18657" transform="translate(-1731 -590)">
	<g id="그룹_18538">
		<rect id="사각형_23937" x="1731" y="590" class="st0" width="55" height="50"/>
		<g id="그룹_18502" transform="translate(-40 406)">
			<g id="그룹_18501" transform="translate(1779 189)">
				<path id="패스_7689" class="st1" d="M18,14h4c0-1,0-1.9,0-2.8c0-0.9,0.3-1.2,1.2-1.2c0.6,0,1.1,0,1.7,0c0.5-0.1,1,0.3,1.1,0.8
					c0,0.1,0,0.2,0,0.2c0,0.8,0,1.6,0,2.3c0,0.5,0.2,0.6,0.6,0.6c0.7,0,1.5,0,2.2,0c0.7,0,1.4,0.3,1.8,1c3.2,5.1,5.9,10.4,6.8,16.4
					c0.3,2.1,0.4,4.3,0.5,6.4c0.1,1.1-0.6,2-1.7,2.1c-0.1,0-0.3,0-0.4,0c-10.5,0-21,0-31.6,0c-1.1,0.1-2.1-0.7-2.2-1.8
					c0-0.2,0-0.3,0-0.5C2,31.3,3.7,24.9,7,19.3c0.8-1.4,1.6-2.7,2.3-4.1c0.4-0.8,1.2-1.3,2.1-1.2c0.6,0,1.3,0,1.9,0
					c0.7,0.1,0.8-0.2,0.8-0.8c0-0.7,0-1.4,0-2.1c0-0.8,0.3-1.1,1.1-1.1c0.6,0,1.1,0,1.7,0c0.8,0,1.1,0.3,1.1,1.1C18,12,18,13,18,14z
					 M20,36c4.4,0,8-3.5,8-7.9c0-4.4-3.5-8-7.9-8c-4.4,0-8,3.5-8,7.9c0,0,0,0,0,0C12,32.4,15.5,36,20,36C20,36,20,36,20,36L20,36z"
					/>
				<path id="패스_7690" class="st1" d="M35,14c-0.7,0-1.4,0-2.1,0c-1.6,0-2.9-1.2-3-2.9c0-0.4,0.1-0.8,0.2-1.2
					c0.8-2.1,0.1-3.4-2-3.8c-5.3-1.1-10.8-1.1-16.1,0C10,6.5,9.2,8.1,10,10c0.7,1.4,0,3.1-1.4,3.8C8.2,14,7.7,14,7.3,14
					c-1.4,0-2.8,0-4.2,0c-1.6,0.1-3-1.1-3.1-2.7c0-0.1,0-0.2,0-0.4c-0.1-2.4,1-4.7,2.9-6.1c2.6-2,5.7-3.4,9-3.9
					c6.6-1.5,13.5-1.1,19.9,1c2.1,0.7,4,1.7,5.6,3.1c0.5,0.4,0.9,0.9,1.3,1.3c0.9,1,1.4,2.3,1.3,3.6c0,0.5,0,1,0,1.6
					c0.1,1.3-0.8,2.4-2.1,2.5c-0.1,0-0.2,0-0.3,0C36.7,14.1,35.9,14,35,14L35,14z"/>
				<path id="패스_7691" class="st1" d="M20,24c2.2,0,4,1.7,4,3.9c0,0,0,0,0,0.1c0,2.2-1.8,4-4,4s-4-1.8-4-4
					C16,25.8,17.8,24,20,24z"/>
			</g>
		</g>
	</g>
</g>
</svg>
